:SAMPLES-PER-SECOND 30
:FRAME-RANGE 1-744
:FULLY-SPECIFIED
:DEGREES
303
root  -5.75709 39.5827 48.2481 -4.31612 -1.25002 -3.86134
RightUpLeg  -0.272165 0.244349 4.49355
RightLeg  1.99221 -2.73986 -1.92299
RightFoot  -0.145396 -0.521621 5.30705
RightToes  5.82063e-011 0 -3.6325e-017
Spine  14.1254 1.30847 10.5045
Spine1  -1.44155 3.96804 -3.54779
HEad  5.24488 14.9871 -1.99126
LeftShoulder1  3.12274 -4.42127 -33.3936
LeftArm  19.4836 1.48269 -33.9924
LeftForeArm  -7.92716 -10.0858 -15.7065
LeftHand  -1.11474 -3.19274 15.265
RightShoulder  5.68749 3.34796 70.0848
RightArm  9.87191 1.38002 -7.73078
RightForeArm  1.94806 -3.11393 16.7763
RightHand  0.554742 16.8853 2.39387
LeftUpLeg  11.4513 16.3442 21.5351
LeftLeg  29.9079 2.06553 1.62417
LeftFoot  -5.13104 0.0422578 -0.209657
LeftToes  1.25507e-010 -3.78807e-010 5.71421e-011
304
root  -6.26676 39.6568 49.2875 -4.54942 -3.64297 -3.46838
RightUpLeg  1.63793 0.307063 5.15759
RightLeg  2.04422 -0.685265 -2.06762
RightFoot  -1.49432 -0.401297 4.53676
RightToes  5.82063e-011 0 -3.6325e-017
Spine  14.4262 1.55951 11.1051
Spine1  -1.52595 4.41858 -4.39449
HEad  5.38724 17.5432 -2.31808
LeftShoulder1  3.06768 -4.27771 -33.4116
LeftArm  22.1957 2.98682 -34.0954
LeftForeArm  -10.1643 -11.8405 -14.8391
LeftHand  -1.10056 -2.98225 15.4393
RightShoulder  5.95943 3.68322 70.0199
RightArm  11.6484 1.15647 -7.40987
RightForeArm  2.71513 -2.21788 16.8176
RightHand  0.65132 17.0666 2.86456
LeftUpLeg  8.05002 14.6119 17.7046
LeftLeg  32.0459 1.15091 1.12271
LeftFoot  -7.95147 0.0643189 -0.558858
LeftToes  1.25507e-010 -3.78807e-010 5.71421e-011
305
root  -6.71534 39.7542 50.3044 -4.82167 -5.62036 -2.81595
RightUpLeg  3.82502 0.0246968 5.2017
RightLeg  1.53081 1.38527 -2.09034
RightFoot  -2.60113 -0.302551 3.72475
RightToes  5.82063e-011 0 -3.6325e-017
Spine  14.7467 1.90196 11.3937
Spine1  -1.68078 4.85519 -5.24088
HEad  5.37671 19.976 -2.99492
LeftShoulder1  3.03742 -4.1233 -33.8083
LeftArm  22.515 4.07382 -34.0998
LeftForeArm  -10.0689 -12.4162 -14.4389
LeftHand  -1.05163 -3.05239 14.6522
RightShoulder  6.22764 4.04858 69.7015
RightArm  13.0473 1.12227 -7.03895
RightForeArm  3.36346 -1.36817 16.7964
RightHand  0.802848 17.1781 3.62017
LeftUpLeg  4.44744 11.5943 13.2615
LeftLeg  32.6239 2.30019 1.93455
LeftFoot  -9.84012 0.0635556 -0.340438
LeftToes  1.25507e-010 -3.78807e-010 5.71421e-011
306
root  -7.13782 39.8505 51.3231 -5.22833 -7.27361 -2.02568
RightUpLeg  6.45074 -0.246338 5.02385
RightLeg  0.362587 2.93143 -2.30771
RightFoot  -3.43179 -0.222097 2.87312
RightToes  5.82063e-011 0 -3.6325e-017
Spine  14.9886 2.32232 11.2905
Spine1  -1.73803 5.26353 -5.9114
HEad  5.36092 22.1927 -3.52249
LeftShoulder1  3.00586 -3.9793 -34.1479
LeftArm  23.2359 4.9277 -34.2025
LeftForeArm  -9.89363 -12.5424 -14.3797
LeftHand  -1.08536 -3.31328 14.6755
RightShoulder  6.57492 4.50218 69.4686
RightArm  14.1509 1.30701 -6.84309
RightForeArm  4.41136 -0.648872 16.7315
RightHand  0.847529 17.3131 3.82114
LeftUpLeg  1.031 7.67959 8.91313
LeftLeg  31.7414 4.8885 3.60122
LeftFoot  -10.5625 0.0573593 0.896925
LeftToes  1.25507e-010 -3.78807e-010 5.71421e-011
307
root  -7.53649 39.9162 52.3295 -5.60095 -9.10577 -1.33377
RightUpLeg  8.8662 -0.44096 4.79365
RightLeg  -0.574378 4.81604 -2.62576
RightFoot  -4.31806 -0.156352 2.06831
RightToes  5.82063e-011 0 -3.6325e-017
Spine  15.2824 2.89022 11.2475
Spine1  -1.91065 5.83672 -6.58874
HEad  5.24757 24.6105 -3.98831
LeftShoulder1  2.96282 -3.84536 -34.2914
LeftArm  23.0255 6.1738 -34.5719
LeftForeArm  -8.84015 -12.4437 -14.3861
LeftHand  -1.05992 -3.30945 14.3464
RightShoulder  7.01222 5.05516 69.3306
RightArm  14.831 1.78746 -6.80808
RightForeArm  5.91019 -0.243987 16.6559
RightHand  0.915848 17.567 4.1138
LeftUpLeg  -2.01942 4.35395 5.54037
LeftLeg  29.5049 6.88678 4.5397
LeftFoot  -10.7691 0.0508727 2.77769
LeftToes  1.25507e-010 -3.78807e-010 5.71421e-011
308
root  -7.90988 39.9809 53.3621 -6.05862 -10.9641 -0.445663
RightUpLeg  11.4172 -0.905325 4.07667
RightLeg  -1.63233 7.08522 -2.96486
RightFoot  -5.15218 -0.109231 1.37227
RightToes  5.82063e-011 0 -3.6325e-017
Spine  15.4175 3.5222 11.0647
Spine1  -1.76775 6.50433 -7.38442
HEad  5.05564 27.1408 -4.13716
LeftShoulder1  2.91459 -3.70054 -34.4291
LeftArm  22.2484 7.46011 -34.7062
LeftForeArm  -7.44842 -12.1311 -14.4973
LeftHand  -0.984938 -3.92353 12.5153
RightShoulder  7.46254 5.64159 69.1019
RightArm  15.3416 2.17962 -6.52841
RightForeArm  7.11794 0.441524 16.4713
RightHand  0.731477 17.3545 3.22563
LeftUpLeg  -4.35613 0.648051 2.51725
LeftLeg  25.4793 8.64701 4.79855
LeftFoot  -10.2115 0.0323993 2.94173
LeftToes  1.25507e-010 -3.78807e-010 5.71421e-011
309
root  -8.27863 39.9918 54.3952 -6.52312 -12.7667 0.189011
RightUpLeg  13.8673 -1.0928 3.67312
RightLeg  -2.44134 8.82572 -3.49951
RightFoot  -6.07232 -0.0761876 0.759506
RightToes  5.82063e-011 0 -3.6325e-017
Spine  15.6858 4.09249 11.028
Spine1  -1.7584 7.15114 -8.10764
HEad  4.58248 30.5071 -4.20327
LeftShoulder1  2.87783 -3.58011 -34.5944
LeftArm  23.1805 8.93416 -34.6065
LeftForeArm  -7.64494 -12.4351 -14.3501
LeftHand  -0.900896 -3.52802 11.96
RightShoulder  8.01502 6.35056 68.9192
RightArm  15.4537 2.61976 -6.29959
RightForeArm  8.04205 1.07861 16.2538
RightHand  0.744098 17.5315 3.25891
LeftUpLeg  -6.02637 -2.44405 0.663231
LeftLeg  19.8788 8.8003 3.83691
LeftFoot  -8.39033 -0.0201613 2.74258
LeftToes  1.25507e-010 -3.78807e-010 5.71421e-011
310
root  -8.64247 39.9479 55.462 -7.02859 -14.4661 0.62854
RightUpLeg  16.3084 -1.17854 3.43599
RightLeg  -2.94633 10.2494 -4.07641
RightFoot  -7.19851 -0.0658003 0.468898
RightToes  5.82063e-011 0 -3.6325e-017
Spine  15.796 4.5924 11.0869
Spine1  -1.47421 7.751 -8.70169
HEad  3.93882 34.5426 -4.04031
LeftShoulder1  2.84055 -3.4377 -34.8845
LeftArm  23.5595 10.302 -34.1568
LeftForeArm  -7.02515 -12.4606 -14.3301
LeftHand  -0.901639 -3.92238 11.4872
RightShoulder  8.60818 7.12809 68.6645
RightArm  16.5538 3.00836 -6.01364
RightForeArm  7.64508 2.29759 16.0527
RightHand  0.705172 17.7048 3.0354
LeftUpLeg  -6.84194 -2.37654 -0.651901
LeftLeg  12.6539 6.9821 3.00984
LeftFoot  -5.3317 -0.131422 3.11545
LeftToes  1.25507e-010 -3.78807e-010 5.71421e-011
311
root  -9.01005 39.8369 56.5928 -7.55852 -16.0048 0.941177
RightUpLeg  18.7572 -1.29875 3.20668
RightLeg  -3.13008 11.5294 -4.58243
RightFoot  -8.58609 -0.0588228 0.0261229
RightToes  5.82063e-011 0 -3.6325e-017
Spine  15.5878 5.09584 11.2224
Spine1  -0.985505 8.37334 -9.31055
HEad  3.5211 38.8633 -3.41579
LeftShoulder1  2.82368 -3.39472 -34.8943
LeftArm  22.6436 11.5928 -33.631
LeftForeArm  -4.6939 -11.768 -14.6604
LeftHand  -0.973323 -4.91557 11.2375
RightShoulder  9.12235 7.80873 68.4394
RightArm  17.9871 3.31464 -5.7118
RightForeArm  6.87773 3.7083 15.7776
RightHand  0.803633 18.0326 3.46728
LeftUpLeg  -6.84012 -0.387559 -1.84715
LeftLeg  4.4324 4.95074 2.69831
LeftFoot  -1.9174 -0.133083 1.75522
LeftToes  1.25507e-010 -3.78807e-010 5.71421e-011
312
root  -9.38684 39.676 57.7854 -8.03879 -17.2212 1.08224
RightUpLeg  21.1715 -1.41826 3.07612
RightLeg  -3.00039 12.37 -4.93128
RightFoot  -10.0726 -0.0647303 -0.314756
RightToes  5.82063e-011 0 -3.6325e-017
Spine  15.0967 5.48015 11.2988
Spine1  -0.39108 8.81131 -9.65747
HEad  3.20987 43.4645 -2.82611
LeftShoulder1  2.79247 -3.30787 -34.956
LeftArm  21.5319 13.0786 -33.1642
LeftForeArm  -3.8456 -11.1971 -14.9528
LeftHand  -0.885416 -4.14849 11.0326
RightShoulder  9.56012 8.41138 68.1588
RightArm  19.5587 3.53572 -5.33707
RightForeArm  6.51854 5.2127 15.3554
RightHand  0.828022 18.2427 3.54916
LeftUpLeg  -6.50188 -0.491061 -2.2324
LeftLeg  -3.1398 5.21156 1.67046
LeftFoot  -1.44666 -0.0950113 1.19873
LeftToes  1.25507e-010 -3.78807e-010 5.71421e-011
313
root  -9.75445 39.474 59.036 -8.51736 -18.1886 1.02261
RightUpLeg  23.519 -1.47087 3.11376
RightLeg  -2.38724 13.0511 -5.21477
RightFoot  -11.5446 -0.0791197 -0.552832
RightToes  5.82063e-011 0 -3.6325e-017
Spine  14.616 5.79682 11.4707
Spine1  0.0483095 9.14685 -9.79583
HEad  3.40963 47.5639 -2.07589
LeftShoulder1  2.77483 -3.22189 -35.212
LeftArm  20.6286 14.2095 -32.3363
LeftForeArm  -2.70514 -10.3204 -15.4201
LeftHand  -0.887385 -4.07007 11.1433
RightShoulder  9.81053 8.83009 67.6726
RightArm  21.8954 3.57511 -4.84516
RightForeArm  5.37269 7.0288 14.7989
RightHand  0.776011 18.3625 3.2759
LeftUpLeg  -6.23224 -1.12173 -2.55677
LeftLeg  -8.63205 5.5684 1.50745
LeftFoot  -2.97867 -0.099892 1.61236
LeftToes  1.25507e-010 -3.78807e-010 5.71421e-011
